<svg width="32" height="32" viewBox="0 0 32 32" fill="none" xmlns="http://www.w3.org/2000/svg">
<path d="M10.1933 22.625C16.8322 24.5021 20.0711 17.5344 19.9538 14.1841C26.8566 23.2777 12.6554 32.0231 4.52158 23.8433C-4.36062 14.9109 1.61978 6.00434 7.33545 3.04568C2.04897 7.83174 0.652516 19.9274 10.1933 22.625Z" fill="#D9D9D9"/>
<path d="M8.60741 10.2213C6.50537 16.7298 13.4423 20.1498 16.8298 20.1379C7.43089 26.6833 -0.961225 12.3649 7.55303 4.57347C16.8507 -3.93487 25.6607 2.25705 28.4715 8.00245C23.8017 2.62484 11.6282 0.868028 8.60741 10.2213Z" fill="#D9D9D9"/>
<path d="M20.3768 8.85822C13.6162 7.47023 10.9048 14.6552 11.2711 17.9878C3.71019 9.42223 17.2217 -0.334816 25.9424 7.22975C35.4654 15.4903 30.1643 24.8087 24.6845 28.176C29.6003 23.0175 30.0924 10.8529 20.3768 8.85822Z" fill="#D9D9D9"/>
<path d="M22.5291 21.5784C24.9665 15.1855 18.2164 11.4171 14.8328 11.2566C24.5594 5.19816 32.1965 19.9246 23.2887 27.2725C13.5612 35.2965 5.08457 28.6645 2.57596 22.7837C6.96025 28.3918 19.0263 30.7657 22.5291 21.5784Z" fill="#D9D9D9"/>
</svg>
