<svg width="162" height="164" viewBox="0 0 162 164" fill="none" xmlns="http://www.w3.org/2000/svg">
<path d="M51.6034 115.932C85.213 125.535 101.61 89.8903 101.016 72.7516C135.961 119.271 64.0679 164.01 22.8905 122.165C-22.0756 76.4692 8.20012 30.9065 37.1357 15.771C10.3729 40.2549 3.30336 102.132 51.6034 115.932Z" fill="white" fill-opacity="0.7"/>
<path d="M43.5754 52.4791C32.9338 85.7744 68.0522 103.27 85.2011 103.209C37.6193 136.693 -4.86582 63.4449 38.2376 23.5865C85.307 -19.9392 129.908 11.7365 144.138 41.128C120.496 13.618 58.8683 4.63077 43.5754 52.4791Z" fill="white" fill-opacity="0.7"/>
<path d="M103.158 45.506C68.9319 38.4055 55.2056 75.1613 57.0602 92.2097C18.7829 48.3913 87.185 -1.52248 131.333 37.1753C179.544 79.4336 152.707 127.103 124.965 144.329C149.851 117.94 152.343 55.7101 103.158 45.506Z" fill="white" fill-opacity="0.7"/>
<path d="M114.053 110.578C126.393 77.8744 92.2201 58.5963 75.0908 57.7756C124.331 26.7825 162.994 102.118 117.898 139.707C68.6533 180.755 25.7401 146.828 13.0403 116.744C35.2358 145.433 96.3203 157.577 114.053 110.578Z" fill="white" fill-opacity="0.7"/>
</svg>
