<svg width="24" height="24" viewBox="0 0 24 24" fill="none" xmlns="http://www.w3.org/2000/svg">
<path d="M21.7531 15.6633C20.5178 15.5109 19.2912 15.2948 18.0781 15.0158C17.782 14.9168 17.4653 14.896 17.1587 14.9553C16.8521 15.0145 16.566 15.1519 16.3281 15.3542C16.0189 15.6692 15.1264 16.55 14.1989 17.46C10.8758 15.8264 8.18833 13.1368 6.55728 9.81249C7.46145 8.88499 8.30728 7.99833 8.65145 7.68916C8.85368 7.45124 8.99108 7.16515 9.05035 6.85857C9.10962 6.552 9.08876 6.23531 8.98978 5.93916C8.71049 4.72423 8.49437 3.49563 8.34228 2.25833C8.32599 2.10076 8.27778 1.94817 8.20059 1.80985C8.12341 1.67152 8.01886 1.55036 7.89333 1.45376C7.7678 1.35715 7.6239 1.28712 7.47043 1.24793C7.31695 1.20875 7.1571 1.20123 7.00062 1.22583H2.03062C1.82547 1.24435 1.63343 1.33465 1.48831 1.48083C1.34319 1.62702 1.2543 1.81971 1.23728 2.02499C0.91645 6.51083 3.41895 11.3117 3.92645 12.2333V12.2683L3.99645 12.4025C5.81315 15.5533 8.42895 18.1691 11.5798 19.9858V19.9858L11.8364 20.1317C13.0031 20.75 17.6406 23.0833 21.9748 22.7625C22.1821 22.7481 22.3776 22.6604 22.5262 22.515C22.6747 22.3697 22.7667 22.1762 22.7856 21.9692V17.005C22.8102 16.8485 22.8027 16.6887 22.7635 16.5352C22.7243 16.3817 22.6543 16.2378 22.5577 16.1123C22.4611 15.9867 22.3399 15.8822 22.2016 15.805C22.0633 15.7278 21.9107 15.6796 21.7531 15.6633Z" stroke="white" stroke-linecap="round" stroke-linejoin="round"/>
</svg>
