<svg width="28" height="28" viewBox="0 0 28 28" fill="none" xmlns="http://www.w3.org/2000/svg">
<path d="M23.7531 17.6633C22.5178 17.5109 21.2912 17.2948 20.0781 17.0158C19.782 16.9168 19.4653 16.896 19.1587 16.9553C18.8521 17.0145 18.566 17.1519 18.3281 17.3542C18.0189 17.6692 17.1264 18.55 16.1989 19.46C12.8758 17.8264 10.1883 15.1368 8.55728 11.8125C9.46145 10.885 10.3073 9.99833 10.6514 9.68916C10.8537 9.45124 10.9911 9.16515 11.0504 8.85857C11.1096 8.552 11.0888 8.23531 10.9898 7.93916C10.7105 6.72423 10.4944 5.49563 10.3423 4.25833C10.326 4.10076 10.2778 3.94817 10.2006 3.80985C10.1234 3.67152 10.0189 3.55036 9.89333 3.45376C9.7678 3.35715 9.6239 3.28712 9.47043 3.24793C9.31695 3.20875 9.1571 3.20123 9.00062 3.22583H4.03062C3.82547 3.24435 3.63343 3.33465 3.48831 3.48083C3.34319 3.62702 3.2543 3.81971 3.23728 4.02499C2.91645 8.51083 5.41895 13.3117 5.92645 14.2333V14.2683L5.99645 14.4025C7.81315 17.5533 10.4289 20.1691 13.5798 21.9858V21.9858L13.8364 22.1317C15.0031 22.75 19.6406 25.0833 23.9748 24.7625C24.1821 24.7481 24.3776 24.6604 24.5262 24.515C24.6747 24.3697 24.7667 24.1762 24.7856 23.9692V19.005C24.8102 18.8485 24.8027 18.6887 24.7635 18.5352C24.7243 18.3817 24.6543 18.2378 24.5577 18.1123C24.4611 17.9867 24.3399 17.8822 24.2016 17.805C24.0633 17.7278 23.9107 17.6796 23.7531 17.6633Z" stroke="#8D8D8D" stroke-linecap="round" stroke-linejoin="round"/>
</svg>
