<svg width="295" height="145" viewBox="0 0 295 145" fill="none" xmlns="http://www.w3.org/2000/svg">
<path d="M255.631 94.2813V91.8075L183.615 26.6626C207.62 49.4771 255.631 94.941 255.631 94.2813Z" fill="#6E978F" fill-opacity="0.2"/>
<path d="M251.234 100.054V97.5803L180.866 26.938C204.322 51.7682 251.234 101.154 251.234 100.054Z" fill="#6E978F" fill-opacity="0.2"/>
<path d="M246.836 107.475C245.956 106.375 246.653 103.81 247.386 103.077L190.762 40.6807C209.636 63.1286 247.715 108.574 246.836 107.475Z" fill="#6E978F" fill-opacity="0.2" stroke="#6E978F" stroke-opacity="0.4" stroke-width="0.5"/>
<path d="M241.888 112.423L243.263 109.125L224.571 87.1348V91.5327L241.888 112.423Z" fill="#6E978F" fill-opacity="0.2"/>
<path d="M224.571 95.3804L239.414 115.721C238.755 115.721 238.223 117.553 238.04 118.47L224.571 101.153V95.3804Z" fill="#6E978F" fill-opacity="0.2"/>
<path d="M225.396 94.0068L240.788 114.897H242.438V113.798L225.396 94.0068Z" fill="#6E978F" fill-opacity="0.2"/>
<path d="M16.4927 95.1062L108.85 23.9141" stroke="#6E978F" stroke-opacity="0.4" stroke-width="0.5"/>
<path d="M24.4639 94.5564L111.599 23.6392" stroke="#6E978F" stroke-opacity="0.4" stroke-width="0.5"/>
<path d="M32.1597 94.2815L113.522 23.9141" stroke="#6E978F" stroke-opacity="0.4" stroke-width="0.5"/>
<path d="M39.8564 94.8313L115.721 23.9141" stroke="#6E978F" stroke-opacity="0.4" stroke-width="0.5"/>
<path d="M47.8276 94.8313L117.92 23.9141" stroke="#6E978F" stroke-opacity="0.4" stroke-width="0.5"/>
<path d="M54.1499 95.3815L120.669 23.3647" stroke="#6E978F" stroke-opacity="0.4" stroke-width="0.5"/>
<path d="M54.4248 101.154L120.669 26.1138" stroke="#6E978F" stroke-opacity="0.4" stroke-width="0.5"/>
<path d="M56.8994 101.703L87.1354 66.2446" stroke="#6E978F" stroke-opacity="0.4" stroke-width="0.5"/>
<path d="M56.8994 107.2L85.4862 73.3906" stroke="#6E978F" stroke-opacity="0.4" stroke-width="0.5"/>
<path d="M54.6997 113.522L74.4906 89.333" stroke="#6E978F" stroke-opacity="0.4" stroke-width="0.5"/>
<path d="M57.4482 114.622L74.2155 92.082" stroke="#6E978F" stroke-opacity="0.4" stroke-width="0.5"/>
<path d="M57.1738 119.57L63.4959 109.674" stroke="#6E978F" stroke-opacity="0.4" stroke-width="0.5"/>
<path d="M10.1704 95.1066L108.025 23.3647H120.669V26.1135" stroke="#6E978F" stroke-opacity="0.4" stroke-width="0.5"/>
<path d="M263.603 92.0818L179.492 20.0651C179.767 19.607 180.537 18.9656 181.416 20.0651" stroke="#6E978F" stroke-opacity="0.4" stroke-width="0.5"/>
<path d="M276.522 91.2584L182.79 19.5166C182.516 19.2417 181.966 18.8569 181.966 19.5166C181.966 20.1763 241.888 68.7189 271.574 92.6328" stroke="#6E978F" stroke-opacity="0.4" stroke-width="0.5"/>
<path d="M152.28 29.6867L163.275 120.944L163.55 79.7135L152.83 17.5923L152.28 29.6867Z" fill="#6E978F" fill-opacity="0.2"/>
<path d="M152.83 17.5923L152.28 29.6867L163.275 120.944L163.55 79.7135M152.83 17.5923L163.55 79.7135M152.83 17.5923H156.403L176.743 79.7135H163.55M157.227 19.2415V17.3174H160.801L192.686 79.7135H178.942L157.227 19.2415ZM161.625 17.5923H165.199L208.354 79.7135H194.61L161.625 17.5923ZM166.298 17.5923H170.147L224.297 79.7135L210.828 80.2633L166.298 17.5923Z" stroke="#6E978F" stroke-opacity="0.4" stroke-width="0.5"/>
<path d="M154.479 105.276L149.531 27.2124C148.34 51.3096 146.507 99.6139 148.706 100.054C150.905 100.494 153.471 103.719 154.479 105.276Z" fill="#6E978F" fill-opacity="0.2"/>
<path d="M145.957 24.7383H146.507C145.499 46.4532 143.429 89.6633 143.209 88.7837C142.989 87.9041 141.101 84.3857 140.185 82.7365L145.957 24.7383Z" fill="#6E978F" fill-opacity="0.3"/>
<path d="M108.026 69.8177C108.466 66.9591 104.177 63.1292 101.979 61.5716C113.34 45.1708 136.173 12.4243 136.613 12.6442C137.052 12.8641 137.162 13.652 137.162 14.0185L108.026 69.8177Z" fill="#6E978F" fill-opacity="0.2"/>
<path d="M143.484 15.6682C143.924 14.3488 142.384 13.2859 141.56 12.9194L124.243 61.0222C127.761 62.1217 130.29 66.0615 131.114 67.894C135.054 51.0352 143.044 16.9876 143.484 15.6682Z" fill="#6E978F" fill-opacity="0.2"/>
<path d="M147.332 22.5396C148.065 22.3564 149.586 22.5946 149.806 25.0135L155.303 108.85" stroke="#6E978F" stroke-opacity="0.4" stroke-width="0.5"/>
<path d="M144.033 17.042C145.04 16.9503 147.056 17.2619 147.056 19.2409L143.208 91.5326" stroke="#6E978F" stroke-opacity="0.4" stroke-width="0.5"/>
<path d="M137.986 13.7437C139.544 12.461 142.879 10.995 143.758 15.3929L131.389 68.4434" stroke="#6E978F" stroke-opacity="0.4" stroke-width="0.5"/>
<path d="M108.05 71.742C108.05 77.828 103.116 82.7617 97.03 82.7617C90.944 82.7617 86.0103 77.828 86.0103 71.742C86.0103 69.5657 86.6409 67.5374 87.7292 65.8291C89.6857 62.7582 93.1202 60.7222 97.03 60.7222C103.116 60.7222 108.05 65.6559 108.05 71.742Z" stroke="#6E978F" stroke-opacity="0.4" stroke-width="0.5"/>
<path d="M131.689 71.742C131.689 77.828 126.755 82.7617 120.669 82.7617C114.583 82.7617 109.649 77.828 109.649 71.742C109.649 69.5657 110.28 67.5374 111.368 65.8291C113.325 62.7582 116.759 60.7222 120.669 60.7222C126.755 60.7222 131.689 65.6559 131.689 71.742Z" stroke="#6E978F" stroke-opacity="0.4" stroke-width="0.5"/>
<path d="M119.594 90.9827C119.594 97.0687 114.661 102.002 108.574 102.002C102.488 102.002 97.5547 97.0687 97.5547 90.9827C97.5547 88.8064 98.1853 86.7781 99.2737 85.0698C101.23 81.9989 104.665 79.9629 108.574 79.9629C114.661 79.9629 119.594 84.8966 119.594 90.9827Z" stroke="#6E978F" stroke-opacity="0.4" stroke-width="0.5"/>
<path d="M96.5049 90.9827C96.5049 97.0687 91.5712 102.002 85.4851 102.002C79.3991 102.002 74.4653 97.0687 74.4653 90.9827C74.4653 88.8064 75.0959 86.7781 76.1843 85.0698C78.1407 81.9989 81.5752 79.9629 85.4851 79.9629C91.5712 79.9629 96.5049 84.8966 96.5049 90.9827Z" stroke="#6E978F" stroke-opacity="0.4" stroke-width="0.5"/>
<path d="M85.5103 110.224C85.5103 116.31 80.5766 121.244 74.4905 121.244C68.4044 121.244 63.4707 116.31 63.4707 110.224C63.4707 108.048 64.1013 106.019 65.1897 104.311C67.1461 101.24 70.5806 99.2041 74.4905 99.2041C80.5766 99.2041 85.5103 104.138 85.5103 110.224Z" stroke="#6E978F" stroke-opacity="0.4" stroke-width="0.5"/>
<path d="M108.05 110.224C108.05 116.31 103.116 121.244 97.03 121.244C90.944 121.244 86.0103 116.31 86.0103 110.224C86.0103 108.048 86.6409 106.019 87.7292 104.311C89.6857 101.24 93.1202 99.2041 97.03 99.2041C103.116 99.2041 108.05 104.138 108.05 110.224Z" stroke="#6E978F" stroke-opacity="0.4" stroke-width="0.5"/>
<path d="M131.689 110.224C131.689 116.31 126.755 121.244 120.669 121.244C114.583 121.244 109.649 116.31 109.649 110.224C109.649 108.048 110.28 106.019 111.368 104.311C113.325 101.24 116.759 99.2041 120.669 99.2041C126.755 99.2041 131.689 104.138 131.689 110.224Z" stroke="#6E978F" stroke-opacity="0.4" stroke-width="0.5"/>
<path d="M155.328 110.224C155.328 116.31 150.394 121.244 144.308 121.244C138.222 121.244 133.288 116.31 133.288 110.224C133.288 108.048 133.919 106.019 135.007 104.311C136.964 101.24 140.398 99.2041 144.308 99.2041C150.394 99.2041 155.328 104.138 155.328 110.224Z" stroke="#6E978F" stroke-opacity="0.4" stroke-width="0.5"/>
<path d="M143.234 90.9827C143.234 97.0687 138.3 102.002 132.214 102.002C126.128 102.002 121.194 97.0687 121.194 90.9827C121.194 88.8064 121.825 86.7781 122.913 85.0698C124.87 81.9989 128.304 79.9629 132.214 79.9629C138.3 79.9629 143.234 84.8966 143.234 90.9827Z" stroke="#6E978F" stroke-opacity="0.4" stroke-width="0.5"/>
<path d="M88.7842 64.3202L133.314 11.5445C134.505 11.0864 136.942 10.9398 137.162 14.0184L107.75 70.0925" stroke="#6E978F" stroke-opacity="0.4" stroke-width="0.5"/>
<path d="M131.665 68.993L143.759 17.042C140.369 38.024 133.424 79.8779 132.764 79.4382C132.104 78.9984 129.191 80.1712 127.816 80.8125C132.214 77.514 132.214 71.5585 131.665 68.993Z" fill="#6E978F" fill-opacity="0.3"/>
<rect x="163.524" y="79.9629" width="13.2436" height="13.2436" rx="1.75" stroke="#6E978F" stroke-opacity="0.4" stroke-width="0.5"/>
<rect x="179.467" y="79.9629" width="13.2436" height="13.2436" rx="1.75" stroke="#6E978F" stroke-opacity="0.4" stroke-width="0.5"/>
<rect x="195.41" y="79.9629" width="13.2436" height="13.2436" rx="1.75" stroke="#6E978F" stroke-opacity="0.4" stroke-width="0.5"/>
<rect x="211.352" y="79.9629" width="13.2436" height="13.2436" rx="1.75" stroke="#6E978F" stroke-opacity="0.4" stroke-width="0.5"/>
<rect x="210.803" y="94.2568" width="13.2436" height="13.2436" rx="1.75" stroke="#6E978F" stroke-opacity="0.4" stroke-width="0.5"/>
<rect x="210.803" y="108.55" width="13.2436" height="13.2436" rx="1.75" stroke="#6E978F" stroke-opacity="0.4" stroke-width="0.5"/>
<rect x="194.86" y="94.2568" width="13.2436" height="13.2436" rx="1.75" stroke="#6E978F" stroke-opacity="0.4" stroke-width="0.5"/>
<rect x="194.86" y="108.55" width="13.2436" height="13.2436" rx="1.75" stroke="#6E978F" stroke-opacity="0.4" stroke-width="0.5"/>
<rect x="178.917" y="94.2568" width="13.2436" height="13.2436" rx="1.75" stroke="#6E978F" stroke-opacity="0.4" stroke-width="0.5"/>
<rect x="178.917" y="108.55" width="13.2436" height="13.2436" rx="1.75" stroke="#6E978F" stroke-opacity="0.4" stroke-width="0.5"/>
<rect x="163.524" y="94.2568" width="13.2436" height="13.2436" rx="1.75" stroke="#6E978F" stroke-opacity="0.4" stroke-width="0.5"/>
<rect x="163.524" y="108.55" width="13.2436" height="13.2436" rx="1.75" stroke="#6E978F" stroke-opacity="0.4" stroke-width="0.5"/>
<circle cx="241.339" cy="118.195" r="3.04848" stroke="#6E978F" stroke-opacity="0.4" stroke-width="0.5"/>
<circle cx="248.485" cy="118.195" r="3.04848" stroke="#6E978F" stroke-opacity="0.4" stroke-width="0.5"/>
<circle cx="256.731" cy="118.195" r="3.04848" stroke="#6E978F" stroke-opacity="0.4" stroke-width="0.5"/>
<circle cx="264.428" cy="118.195" r="3.04848" stroke="#6E978F" stroke-opacity="0.4" stroke-width="0.5"/>
<circle cx="272.674" cy="118.195" r="3.04848" stroke="#6E978F" stroke-opacity="0.4" stroke-width="0.5"/>
<circle cx="279.821" cy="118.195" r="3.04848" stroke="#6E978F" stroke-opacity="0.4" stroke-width="0.5"/>
<circle cx="288.067" cy="118.195" r="3.04848" stroke="#6E978F" stroke-opacity="0.4" stroke-width="0.5"/>
<circle cx="284.218" cy="112.148" r="3.04848" stroke="#6E978F" stroke-opacity="0.4" stroke-width="0.5"/>
<circle cx="276.522" cy="112.148" r="3.04848" stroke="#6E978F" stroke-opacity="0.4" stroke-width="0.5"/>
<circle cx="268.825" cy="112.148" r="3.04848" stroke="#6E978F" stroke-opacity="0.4" stroke-width="0.5"/>
<circle cx="261.129" cy="112.148" r="3.04848" stroke="#6E978F" stroke-opacity="0.4" stroke-width="0.5"/>
<circle cx="253.433" cy="112.148" r="3.04848" stroke="#6E978F" stroke-opacity="0.4" stroke-width="0.5"/>
<circle cx="245.186" cy="112.148" r="3.04848" stroke="#6E978F" stroke-opacity="0.4" stroke-width="0.5"/>
<circle cx="249.585" cy="105.551" r="3.04848" stroke="#6E978F" stroke-opacity="0.4" stroke-width="0.5"/>
<circle cx="257.281" cy="105.551" r="3.04848" stroke="#6E978F" stroke-opacity="0.4" stroke-width="0.5"/>
<circle cx="265.527" cy="105.551" r="3.04848" stroke="#6E978F" stroke-opacity="0.4" stroke-width="0.5"/>
<circle cx="273.774" cy="105.551" r="3.04848" stroke="#6E978F" stroke-opacity="0.4" stroke-width="0.5"/>
<circle cx="281.47" cy="105.551" r="3.04848" stroke="#6E978F" stroke-opacity="0.4" stroke-width="0.5"/>
<circle cx="277.622" cy="99.5036" r="3.04848" stroke="#6E978F" stroke-opacity="0.4" stroke-width="0.5"/>
<circle cx="269.925" cy="99.5036" r="3.04848" stroke="#6E978F" stroke-opacity="0.4" stroke-width="0.5"/>
<circle cx="261.679" cy="99.5036" r="3.04848" stroke="#6E978F" stroke-opacity="0.4" stroke-width="0.5"/>
<circle cx="253.983" cy="99.5036" r="3.04848" stroke="#6E978F" stroke-opacity="0.4" stroke-width="0.5"/>
<circle cx="258.38" cy="93.4567" r="3.04848" stroke="#6E978F" stroke-opacity="0.4" stroke-width="0.5"/>
<circle cx="266.627" cy="93.4567" r="3.04848" stroke="#6E978F" stroke-opacity="0.4" stroke-width="0.5"/>
<circle cx="274.323" cy="93.4567" r="3.04848" stroke="#6E978F" stroke-opacity="0.4" stroke-width="0.5"/>
<path d="M178.943 19.7907C178.301 19.6075 177.019 19.5708 177.019 20.8902C177.019 22.2096 177.019 21.2566 177.019 20.6152L255.357 94.2812M177.019 22.8142L255.357 96.4802" stroke="#6E978F" stroke-opacity="0.4" stroke-width="0.5"/>
<path d="M251.234 102.528L175.919 21.9901C175.919 21.6236 176.139 20.9456 177.018 21.1655" stroke="#6E978F" stroke-opacity="0.4" stroke-width="0.5"/>
<path d="M251.234 100.097L177.019 21.165" stroke="#6E978F" stroke-opacity="0.4" stroke-width="0.5"/>
<path d="M246.561 109.399L224.571 82.187" stroke="#6E978F" stroke-opacity="0.4" stroke-width="0.5"/>
<path d="M242.163 113.523L224.846 92.3574" stroke="#6E978F" stroke-opacity="0.4" stroke-width="0.5"/>
<path d="M238.315 119.569L224.296 100.878" stroke="#6E978F" stroke-opacity="0.4" stroke-width="0.5"/>
<rect x="10.145" y="95.3564" width="5.5472" height="5.5472" stroke="#6E978F" stroke-opacity="0.4" stroke-width="0.5"/>
<rect x="12.3447" y="101.953" width="5.5472" height="5.5472" stroke="#6E978F" stroke-opacity="0.4" stroke-width="0.5"/>
<rect x="10.6953" y="108.55" width="5.5472" height="5.5472" stroke="#6E978F" stroke-opacity="0.4" stroke-width="0.5"/>
<rect x="13.4443" y="114.597" width="5.5472" height="4.99746" stroke="#6E978F" stroke-opacity="0.4" stroke-width="0.5"/>
<rect x="20.0405" y="101.953" width="5.5472" height="5.5472" stroke="#6E978F" stroke-opacity="0.4" stroke-width="0.5"/>
<rect x="17.8418" y="95.3564" width="5.5472" height="5.5472" stroke="#6E978F" stroke-opacity="0.4" stroke-width="0.5"/>
<rect x="27.1885" y="101.953" width="5.5472" height="5.5472" stroke="#6E978F" stroke-opacity="0.4" stroke-width="0.5"/>
<rect x="18.3921" y="108.55" width="5.5472" height="5.5472" stroke="#6E978F" stroke-opacity="0.4" stroke-width="0.5"/>
<rect x="21.1406" y="114.597" width="5.5472" height="4.99746" stroke="#6E978F" stroke-opacity="0.4" stroke-width="0.5"/>
<rect x="35.4341" y="101.953" width="5.5472" height="5.5472" stroke="#6E978F" stroke-opacity="0.4" stroke-width="0.5"/>
<rect x="24.9883" y="95.3564" width="5.5472" height="5.5472" stroke="#6E978F" stroke-opacity="0.4" stroke-width="0.5"/>
<rect x="43.1304" y="101.953" width="5.5472" height="5.5472" stroke="#6E978F" stroke-opacity="0.4" stroke-width="0.5"/>
<rect x="25.5381" y="108.55" width="5.5472" height="5.5472" stroke="#6E978F" stroke-opacity="0.4" stroke-width="0.5"/>
<rect x="28.2871" y="114.597" width="5.5472" height="4.99746" stroke="#6E978F" stroke-opacity="0.4" stroke-width="0.5"/>
<rect x="50.2773" y="101.953" width="5.5472" height="5.5472" stroke="#6E978F" stroke-opacity="0.4" stroke-width="0.5"/>
<rect x="33.2344" y="95.3564" width="5.5472" height="5.5472" stroke="#6E978F" stroke-opacity="0.4" stroke-width="0.5"/>
<rect x="33.7847" y="108.55" width="5.5472" height="5.5472" stroke="#6E978F" stroke-opacity="0.4" stroke-width="0.5"/>
<rect x="36.5332" y="114.597" width="5.5472" height="4.99746" stroke="#6E978F" stroke-opacity="0.4" stroke-width="0.5"/>
<rect x="40.9307" y="95.3564" width="5.5472" height="5.5472" stroke="#6E978F" stroke-opacity="0.4" stroke-width="0.5"/>
<rect x="41.4814" y="108.55" width="5.5472" height="5.5472" stroke="#6E978F" stroke-opacity="0.4" stroke-width="0.5"/>
<rect x="44.23" y="114.597" width="5.5472" height="4.99746" stroke="#6E978F" stroke-opacity="0.4" stroke-width="0.5"/>
<rect x="48.0776" y="95.3564" width="5.5472" height="5.5472" stroke="#6E978F" stroke-opacity="0.4" stroke-width="0.5"/>
<rect x="48.6274" y="108.55" width="5.5472" height="5.5472" stroke="#6E978F" stroke-opacity="0.4" stroke-width="0.5"/>
<rect x="51.376" y="114.597" width="5.5472" height="4.99746" stroke="#6E978F" stroke-opacity="0.4" stroke-width="0.5"/>
</svg>
