<svg width="28" height="28" viewBox="0 0 28 28" fill="none" xmlns="http://www.w3.org/2000/svg">
<path d="M23.7533 17.6633C22.518 17.5109 21.2914 17.2948 20.0783 17.0158C19.7822 16.9168 19.4655 16.896 19.1589 16.9553C18.8523 17.0145 18.5662 17.1519 18.3283 17.3542C18.0192 17.6692 17.1267 18.55 16.1992 19.46C12.8761 17.8264 10.1885 15.1368 8.5575 11.8125C9.46166 10.885 10.3075 9.99833 10.6517 9.68916C10.8539 9.45124 10.9913 9.16515 11.0506 8.85857C11.1098 8.552 11.089 8.23531 10.99 7.93916C10.7107 6.72423 10.4946 5.49563 10.3425 4.25833C10.3262 4.10076 10.278 3.94817 10.2008 3.80985C10.1236 3.67152 10.0191 3.55036 9.89354 3.45376C9.76801 3.35715 9.62412 3.28712 9.47064 3.24793C9.31716 3.20875 9.15731 3.20123 9.00083 3.22583H4.03083C3.82568 3.24435 3.63364 3.33465 3.48852 3.48083C3.34341 3.62702 3.25451 3.81971 3.2375 4.02499C2.91666 8.51083 5.41916 13.3117 5.92666 14.2333V14.2683L5.99666 14.4025C7.81336 17.5533 10.4292 20.1691 13.58 21.9858V21.9858L13.8367 22.1317C15.0033 22.75 19.6408 25.0833 23.975 24.7625C24.1824 24.7481 24.3778 24.6604 24.5264 24.515C24.675 24.3697 24.7669 24.1762 24.7858 23.9692V19.005C24.8104 18.8485 24.8029 18.6887 24.7637 18.5352C24.7245 18.3817 24.6545 18.2378 24.5579 18.1123C24.4613 17.9867 24.3401 17.8822 24.2018 17.805C24.0635 17.7278 23.9109 17.6796 23.7533 17.6633Z" stroke-linecap="round" stroke-linejoin="round"/>
</svg>
